<svg xmlns="http://www.w3.org/2000/svg" width="1308" height="835.9999999999999">
 <!-- Created with Image Occlusion Enhanced -->
 <g>
  <title>Labels</title>
 </g>
 <g>
  <title>Masks</title>
  <rect stroke="#2D2D2D" id="07f04443c20047b9ac8da0a8ad786a92-ao-1" height="26.5625" width="276.56252" y="37.43754" x="259.18749" fill="#FFEBA2"/>
  <rect id="07f04443c20047b9ac8da0a8ad786a92-ao-2" stroke="#2D2D2D" height="26.5625" width="276.56252" y="77.28126" x="197.46873" fill="#FFEBA2"/>
  <rect id="07f04443c20047b9ac8da0a8ad786a92-ao-3" stroke="#2D2D2D" height="26.5625" width="276.56252" y="141.34376" x="127.1562" fill="#FFEBA2"/>
  <rect id="07f04443c20047b9ac8da0a8ad786a92-ao-4" stroke="#2D2D2D" height="26.5625" width="276.56252" y="196.03124" x="106.8437" fill="#FFEBA2"/>
  <rect id="07f04443c20047b9ac8da0a8ad786a92-ao-5" stroke="#2D2D2D" height="26.5625" width="276.56252" y="271.03126" x="86.5312" fill="#FFEBA2"/>
  <rect stroke="#2D2D2D" id="07f04443c20047b9ac8da0a8ad786a92-ao-6" height="60.9375" width="276.56252" y="327.28126" x="83.4062" fill="#FFEBA2"/>
  <rect id="07f04443c20047b9ac8da0a8ad786a92-ao-7" stroke="#2D2D2D" height="26.5625" width="276.56252" y="397.59376" x="88.0937" fill="#FFEBA2"/>
  <rect id="07f04443c20047b9ac8da0a8ad786a92-ao-8" stroke="#2D2D2D" height="26.5625" width="276.56252" y="452.28126" x="83.4062" fill="#FFEBA2"/>
  <rect id="07f04443c20047b9ac8da0a8ad786a92-ao-9" stroke="#2D2D2D" height="26.5625" width="276.56252" y="491.34376" x="117.7812" fill="#FFEBA2"/>
  <rect id="07f04443c20047b9ac8da0a8ad786a92-ao-10" stroke="#2D2D2D" height="26.5625" width="276.56252" y="567.90626" x="145.90623" fill="#FFEBA2"/>
  <rect stroke="#2D2D2D" id="07f04443c20047b9ac8da0a8ad786a92-ao-11" height="54.6875" width="335.93752" y="611.65629" x="106.8437" fill="#FFEBA2"/>
  <rect id="07f04443c20047b9ac8da0a8ad786a92-ao-12" stroke="#2D2D2D" height="26.5625" width="276.56252" y="692.90626" x="838.09373" fill="#FFEBA2"/>
  <rect id="07f04443c20047b9ac8da0a8ad786a92-ao-13" stroke="#2D2D2D" height="26.5625" width="276.56252" y="625.71877" x="942.78126" fill="#FFEBA2"/>
  <rect id="07f04443c20047b9ac8da0a8ad786a92-ao-14" stroke="#2D2D2D" height="26.5625" width="276.56252" y="574.15626" x="964.65626" fill="#FFEBA2"/>
  <rect stroke="#2D2D2D" id="07f04443c20047b9ac8da0a8ad786a92-ao-15" height="70.31251" width="276.56252" y="486.65627" x="989.65626" fill="#FFEBA2"/>
  <rect stroke="#2D2D2D" id="07f04443c20047b9ac8da0a8ad786a92-ao-16" height="62.50001" width="276.56252" y="321.03126" x="1017.78123" fill="#FFEBA2"/>
  <rect id="07f04443c20047b9ac8da0a8ad786a92-ao-17" stroke="#2D2D2D" height="26.5625" width="276.56252" y="211.65624" x="1003.71876" fill="#FFEBA2"/>
  <rect id="07f04443c20047b9ac8da0a8ad786a92-ao-18" stroke="#2D2D2D" height="26.5625" width="276.56252" y="164.78124" x="977.15626" fill="#FFEBA2"/>
  
 </g>
</svg>