<svg xmlns="http://www.w3.org/2000/svg" width="657" height="550">
 <!-- Created with Image Occlusion Enhanced -->
 <g>
  <title>Labels</title>
 </g>
 <g>
  <title>Masks</title>
  <rect id="6822caa9334e4fc2af9a42f169463679-ao-1" height="34.02062" width="153.60825" y="123.19587" x="528.56705" stroke="#2D2D2D" fill="#FFEBA2"/>
  <rect id="6822caa9334e4fc2af9a42f169463679-ao-2" height="20.61856" width="144.3299" y="211.85567" x="535.78355" stroke="#2D2D2D" fill="#FFEBA2"/>
  <rect id="6822caa9334e4fc2af9a42f169463679-ao-3" height="24.74227" width="164.94846" y="258.24742" x="515.16499" stroke="#2D2D2D" fill="#FFEBA2"/>
  <rect id="6822caa9334e4fc2af9a42f169463679-ao-4" height="18.5567" width="154.63918" y="293.29897" x="544.03097" stroke="#2D2D2D" fill="#FFEBA2"/>
  <rect id="6822caa9334e4fc2af9a42f169463679-ao-5" height="16.49485" width="177.31959" y="321.13402" x="548.15468" stroke="#2D2D2D" fill="#FFEBA2"/>
  <rect id="6822caa9334e4fc2af9a42f169463679-ao-6" height="19.58763" width="176.28867" y="350" x="525.47427" stroke="#2D2D2D" fill="#FFEBA2"/>
  <rect id="6822caa9334e4fc2af9a42f169463679-ao-7" height="20.61856" width="224.74228" y="381.95877" x="496.60829" stroke="#2D2D2D" fill="#FFEBA2"/>
  <rect id="6822caa9334e4fc2af9a42f169463679-ao-8" height="60.82474" width="47.42268" y="393.29897" x="318.25777" stroke="#2D2D2D" fill="#FFEBA2"/>
  <rect id="6822caa9334e4fc2af9a42f169463679-ao-9" height="19.58763" width="91.75258" y="411.85567" x="378.05158" stroke="#2D2D2D" fill="#FFEBA2"/>
  <rect id="6822caa9334e4fc2af9a42f169463679-ao-10" height="19.58763" width="85.56701" y="469.58764" x="268.77323" stroke="#2D2D2D" fill="#FFEBA2"/>
  <rect id="6822caa9334e4fc2af9a42f169463679-ao-11" height="26.80412" width="71.13402" y="452.06186" x="180.11343" stroke="#2D2D2D" fill="#FFEBA2"/>
  <rect id="6822caa9334e4fc2af9a42f169463679-ao-12" height="19.58763" width="205.15465" y="499.48454" x="65.68044" stroke="#2D2D2D" fill="#FFEBA2"/>
  <rect id="6822caa9334e4fc2af9a42f169463679-ao-13" height="16.49485" width="72.16495" y="446.90722" x="62.58765" stroke="#2D2D2D" fill="#FFEBA2"/>
  <rect id="6822caa9334e4fc2af9a42f169463679-ao-14" height="23.71134" width="61.85567" y="405.67011" x="65.68044" stroke="#2D2D2D" fill="#FFEBA2"/>
  <rect id="6822caa9334e4fc2af9a42f169463679-ao-15" height="35.05155" width="125.7732" y="365.46392" x="12.07219" stroke="#2D2D2D" fill="#FFEBA2"/>
  <rect id="6822caa9334e4fc2af9a42f169463679-ao-16" height="31.95876" width="173.19588" y="330.41237" x="-35.35049" stroke="#2D2D2D" fill="#FFEBA2"/>
  <rect id="6822caa9334e4fc2af9a42f169463679-ao-17" height="18.5567" width="161.85568" y="306.70103" x="-27.10307" stroke="#2D2D2D" fill="#FF7E7E" class="qshape"/>
  <rect id="6822caa9334e4fc2af9a42f169463679-ao-18" height="20.61856" width="186.59794" y="272.68041" x="-33.28864" stroke="#2D2D2D" fill="#FFEBA2"/>
  <rect id="6822caa9334e4fc2af9a42f169463679-ao-19" height="29.89691" width="193.81444" y="224.2268" x="-35.35049" stroke="#2D2D2D" fill="#FFEBA2"/>
  <rect id="6822caa9334e4fc2af9a42f169463679-ao-20" height="27.83505" width="177.31959" y="179.8969" x="-38.44328" stroke="#2D2D2D" fill="#FFEBA2"/>
  <rect id="6822caa9334e4fc2af9a42f169463679-ao-21" height="41.23711" width="173.19588" y="104.63917" x="-38.44328" stroke="#2D2D2D" fill="#FFEBA2"/>
  <rect id="6822caa9334e4fc2af9a42f169463679-ao-22" height="64.94846" width="170.1031" y="25.25772" x="-35.35049" stroke="#2D2D2D" fill="#FFEBA2"/>
  <rect id="6822caa9334e4fc2af9a42f169463679-ao-23" height="14.43299" width="167.01032" y="9.79381" x="148.15467" stroke="#2D2D2D" fill="#FFEBA2"/>
 </g>
</svg>