<svg xmlns="http://www.w3.org/2000/svg" width="796" height="635">
 <!-- Created with Image Occlusion Enhanced -->
 <g>
  <title>Labels</title>
 </g>
 <g>
  <title>Masks</title>
  <rect id="85bbedd678874894a22d8720d2015209-ao-1" height="34.52381" width="195.23809" y="288.80948" x="653.99997" stroke="#2D2D2D" fill="#FFEBA2"/>
  <rect id="85bbedd678874894a22d8720d2015209-ao-2" height="21.42857" width="201.19047" y="374.52376" x="665.90473" stroke="#2D2D2D" fill="#FFEBA2"/>
  <rect id="85bbedd678874894a22d8720d2015209-ao-3" height="64.28571" width="158.33333" y="443.57138" x="665.90473" stroke="#2D2D2D" fill="#FFEBA2"/>
  <rect id="85bbedd678874894a22d8720d2015209-ao-4" height="48.80952" width="257.14285" y="525.71424" x="626.61902" stroke="#2D2D2D" fill="#FFEBA2"/>
  <rect id="85bbedd678874894a22d8720d2015209-ao-5" height="21.42857" width="98.80952" y="591.19043" x="96.85712" stroke="#2D2D2D" fill="#FFEBA2"/>
  <rect id="85bbedd678874894a22d8720d2015209-ao-6" height="69.04762" width="136.90476" y="495.95233" x="62.33331" stroke="#2D2D2D" fill="#FFEBA2"/>
  <rect id="85bbedd678874894a22d8720d2015209-ao-7" height="26.19048" width="196.42857" y="444.76186" x="26.61903" stroke="#2D2D2D" fill="#FFEBA2"/>
  <rect id="85bbedd678874894a22d8720d2015209-ao-8" height="39.28571" width="188.09523" y="400.71424" x="42.09522" stroke="#2D2D2D" fill="#FFEBA2"/>
  <rect id="85bbedd678874894a22d8720d2015209-ao-9" height="27.38095" width="169.04762" y="356.66662" x="30.19046" stroke="#2D2D2D" fill="#FFEBA2"/>
  
  <rect id="85bbedd678874894a22d8720d2015209-ao-11" height="35.71428" width="182.14285" y="272.14281" x="-13.85716" stroke="#2D2D2D" fill="#FFEBA2"/>
  <rect id="85bbedd678874894a22d8720d2015209-ao-12" height="33.33333" width="219.04761" y="239.99996" x="-1.9524" stroke="#2D2D2D" fill="#FFEBA2"/>
  <rect id="85bbedd678874894a22d8720d2015209-ao-13" height="29.7619" width="189.28571" y="205.47615" x="-17.42859" stroke="#2D2D2D" fill="#FFEBA2"/>
  <rect id="85bbedd678874894a22d8720d2015209-ao-14" height="30.95238" width="185.71428" y="168.57139" x="-5.52383" stroke="#2D2D2D" fill="#FFEBA2"/>
  <rect id="85bbedd678874894a22d8720d2015209-ao-15" height="47.61905" width="170.23809" y="114.99996" x="-22.19049" stroke="#2D2D2D" fill="#FFEBA2"/>
  <rect id="85bbedd678874894a22d8720d2015209-ao-16" height="33.33333" width="217.85714" y="75.71425" x="30.19046" stroke="#2D2D2D" fill="#FFEBA2"/>
  <rect id="85bbedd678874894a22d8720d2015209-ao-17" height="28.57143" width="166.66666" y="39.99996" x="93.28569" stroke="#2D2D2D" fill="#FFEBA2"/>
 </g>
</svg>