<svg xmlns="http://www.w3.org/2000/svg" width="1524" height="1062">
 <!-- Created with Image Occlusion Enhanced -->
 <g>
  <title>Labels</title>
 </g>
 <g>
  <title>Masks</title>
  <rect id="dc293b24e14d49fba7af6882ebfbf44e-ao-1" height="68" width="154" y="370" x="490" stroke="#2D2D2D" fill="#FFEBA2"/>
  <rect id="dc293b24e14d49fba7af6882ebfbf44e-ao-2" height="44" width="338" y="230" x="112" stroke="#2D2D2D" fill="#FFEBA2"/>
  <rect id="dc293b24e14d49fba7af6882ebfbf44e-ao-3" height="34" width="88" y="84" x="320" stroke="#2D2D2D" fill="#FFEBA2"/>
  <rect id="dc293b24e14d49fba7af6882ebfbf44e-ao-4" height="32" width="172" y="354" x="836" stroke="#2D2D2D" fill="#FFEBA2"/>
  <rect id="dc293b24e14d49fba7af6882ebfbf44e-ao-5" height="38" width="126" y="416" x="920" stroke="#2D2D2D" fill="#FFEBA2"/>
  <rect id="dc293b24e14d49fba7af6882ebfbf44e-ao-6" height="38" width="52" y="424" x="856" stroke="#2D2D2D" fill="#FF7E7E" class="qshape"/>
  <rect id="dc293b24e14d49fba7af6882ebfbf44e-ao-7" height="42" width="186" y="512" x="1318" stroke="#2D2D2D" fill="#FFEBA2"/>
  <rect id="dc293b24e14d49fba7af6882ebfbf44e-ao-8" height="40" width="96" y="502" x="1078" stroke="#2D2D2D" fill="#FFEBA2"/>
  <rect id="dc293b24e14d49fba7af6882ebfbf44e-ao-9" height="32" width="60" y="546" x="996" stroke="#2D2D2D" fill="#FFEBA2"/>
  <rect id="dc293b24e14d49fba7af6882ebfbf44e-ao-10" height="40" width="206" y="810" x="976" stroke="#2D2D2D" fill="#FFEBA2"/>
  <rect id="dc293b24e14d49fba7af6882ebfbf44e-ao-11" height="40" width="218" y="906" x="870" stroke="#2D2D2D" fill="#FFEBA2"/>
  <rect id="dc293b24e14d49fba7af6882ebfbf44e-ao-12" height="164" width="164" y="822" x="464" stroke="#2D2D2D" fill="#FFEBA2"/>
  <rect id="dc293b24e14d49fba7af6882ebfbf44e-ao-13" height="38" width="266" y="792" x="56" stroke="#2D2D2D" fill="#FFEBA2"/>
  <rect id="dc293b24e14d49fba7af6882ebfbf44e-ao-14" height="44" width="108" y="524" x="186" stroke="#2D2D2D" fill="#FFEBA2"/>
  <rect id="dc293b24e14d49fba7af6882ebfbf44e-ao-15" height="40" width="50" y="496" x="614" stroke="#2D2D2D" fill="#FFEBA2"/>
  <rect id="dc293b24e14d49fba7af6882ebfbf44e-ao-16" height="42" width="42" y="586" x="596" stroke="#2D2D2D" fill="#FFEBA2"/>
  <rect id="dc293b24e14d49fba7af6882ebfbf44e-ao-17" height="42" width="50" y="642" x="682" stroke="#2D2D2D" fill="#FFEBA2"/>
  <rect stroke="#2D2D2D" id="dc293b24e14d49fba7af6882ebfbf44e-ao-18" height="32" width="50" y="632" x="738" fill="#FFEBA2"/>
  <rect id="dc293b24e14d49fba7af6882ebfbf44e-ao-19" height="42" width="126" y="524" x="826" stroke-linecap="null" stroke-linejoin="null" stroke-dasharray="null" stroke="#2D2D2D" fill="#FFEBA2"/>
 </g>
</svg>