<svg xmlns="http://www.w3.org/2000/svg" width="1240" height="1098">
 <!-- Created with Image Occlusion Enhanced -->
 <g>
  <title>Labels</title>
 </g>
 <g>
  <title>Masks</title>
  <g id="e1b3cf6ce57643ad9bc90cf1fdecd50e-ao-1">
   <rect fill="#FFEBA2" stroke="#2D2D2D" x="145.71434" y="293.83666" width="85.71429" height="79.59184"/>
   <rect fill="#FFEBA2" stroke="#2D2D2D" x="306.93884" y="661.18362" width="65.30613" height="55.10204"/>
   <rect fill="#FFEBA2" stroke="#2D2D2D" x="531.42864" y="714.24484" width="48.97959" height="44.89796"/>
   <rect fill="#FFEBA2" stroke="#2D2D2D" x="655.91844" y="716.28566" width="55.10204" height="42.85714"/>
   <rect fill="#FFEBA2" stroke="#2D2D2D" x="919.18376" y="681.59178" width="73.46939" height="42.85714"/>
   <rect fill="#FFEBA2" stroke="#2D2D2D" x="778.36743" y="704.04076" width="67.34694" height="48.97959"/>
   <rect fill="#FFEBA2" stroke="#2D2D2D" x="1039.59193" y="614.24484" width="65.30613" height="57.14286"/>
   <rect fill="#FFEBA2" stroke="#2D2D2D" x="1092.65315" y="473.42851" width="53.06123" height="65.30613"/>
   <rect fill="#FFEBA2" stroke="#2D2D2D" x="1004.89805" y="416.28565" width="46.93878" height="48.97959"/>
   <rect fill="#FFEBA2" stroke="#2D2D2D" x="880.40825" y="381.59177" width="77.55102" height="46.93878"/>
   <rect fill="#FFEBA2" stroke="#2D2D2D" x="1076.32662" y="306.08156" width="57.14286" height="67.34694"/>
   <rect fill="#FFEBA2" stroke="#2D2D2D" x="615.10212" y="995.87751" width="93.87755" height="55.10204"/>
   <rect fill="#FFEBA2" stroke="#2D2D2D" x="827.34702" y="955.06118" width="93.87755" height="32.65306"/>
   <rect fill="#FFEBA2" stroke="#2D2D2D" x="402.85721" y="946.89792" width="81.63266" height="53.06123"/>
  </g>
  <rect id="e1b3cf6ce57643ad9bc90cf1fdecd50e-ao-2" height="110.20409" width="144.89797" y="55.06114" x="825.30621" stroke="#2D2D2D" fill="#FFEBA2"/>
  
  <rect stroke="#2D2D2D" id="e1b3cf6ce57643ad9bc90cf1fdecd50e-ao-4" height="157.14287" width="140.81633" y="773.42851" x="202.8572" fill="#FFEBA2"/>
 </g>
</svg>