<svg xmlns="http://www.w3.org/2000/svg" width="665" height="852">
 <!-- Created with Image Occlusion Enhanced -->
 <g>
  <title>Labels</title>
 </g>
 <g>
  <title>Masks</title>
  <rect id="fe0d9fcefffb45a682688c1b201e37f6-ao-1" height="26.66667" width="93.33333" y="209.66664" x="535" stroke="#2D2D2D" fill="#FFEBA2"/>
  <rect id="fe0d9fcefffb45a682688c1b201e37f6-ao-2" height="41.66667" width="153.33333" y="262.99997" x="518.33333" stroke="#2D2D2D" fill="#FFEBA2"/>
  <rect id="fe0d9fcefffb45a682688c1b201e37f6-ao-3" height="31.66667" width="136.66667" y="304.66664" x="526.66667" stroke="#2D2D2D" fill="#FFEBA2"/>
  <rect id="fe0d9fcefffb45a682688c1b201e37f6-ao-4" height="31.66667" width="146.66667" y="344.66664" x="535" stroke="#2D2D2D" fill="#FFEBA2"/>
  <rect id="fe0d9fcefffb45a682688c1b201e37f6-ao-5" height="35" width="148.33333" y="379.66664" x="523.33333" stroke="#2D2D2D" fill="#FFEBA2"/>
  <rect id="fe0d9fcefffb45a682688c1b201e37f6-ao-6" height="35" width="121.66667" y="419.66664" x="535" stroke="#2D2D2D" fill="#FFEBA2"/>
  <rect id="fe0d9fcefffb45a682688c1b201e37f6-ao-7" height="25" width="251.66667" y="472.99997" x="430" stroke="#2D2D2D" fill="#FFEBA2"/>
  <rect id="fe0d9fcefffb45a682688c1b201e37f6-ao-8" height="18.33333" width="191.66667" y="452.99997" x="475" stroke="#2D2D2D" fill="#FFEBA2"/>
  <rect id="fe0d9fcefffb45a682688c1b201e37f6-ao-9" height="28.33333" width="93.33333" y="494.66664" x="458.33333" stroke="#2D2D2D" fill="#FFEBA2"/>
  <rect id="fe0d9fcefffb45a682688c1b201e37f6-ao-10" height="26.66667" width="83.33333" y="469.66664" x="231.66667" stroke="#2D2D2D" fill="#FF7E7E" class="qshape"/>
  <rect id="fe0d9fcefffb45a682688c1b201e37f6-ao-11" height="26.66667" width="106.66667" y="421.3333" x="201.66667" stroke="#2D2D2D" fill="#FFEBA2"/>
  <rect id="fe0d9fcefffb45a682688c1b201e37f6-ao-12" height="51.66667" width="111.66667" y="287.99997" x="130" stroke="#2D2D2D" fill="#FFEBA2"/>
  <rect id="fe0d9fcefffb45a682688c1b201e37f6-ao-13" height="31.66667" width="135" y="204.66664" x="225" stroke="#2D2D2D" fill="#FFEBA2"/>
  <rect id="fe0d9fcefffb45a682688c1b201e37f6-ao-14" height="31.66667" width="53.33333" y="276.3333" x="313.33333" stroke="#2D2D2D" fill="#FFEBA2"/>
  <rect id="fe0d9fcefffb45a682688c1b201e37f6-ao-15" height="21.66667" width="123.33333" y="389.66664" x="28.33333" stroke="#2D2D2D" fill="#FFEBA2"/>
  <rect id="fe0d9fcefffb45a682688c1b201e37f6-ao-16" height="11.66667" width="146.66667" y="412.99997" x="30" stroke="#2D2D2D" fill="#FFEBA2"/>
  <rect id="fe0d9fcefffb45a682688c1b201e37f6-ao-17" height="8.33333" width="146.66667" y="427.99997" x="21.66667" stroke="#2D2D2D" fill="#FFEBA2"/>
  <rect id="fe0d9fcefffb45a682688c1b201e37f6-ao-18" height="13.33333" width="133.33333" y="441.3333" x="26.66667" stroke="#2D2D2D" fill="#FFEBA2"/>
  <rect id="fe0d9fcefffb45a682688c1b201e37f6-ao-19" height="15" width="128.33333" y="456.3333" x="28.33333" stroke="#2D2D2D" fill="#FFEBA2"/>
 </g>
</svg>